PathFileType	4	(X/Y/Z)	c:/Users/goper/Files/vsCode/490R/osim_files/C06/C06_Static_01.trc
DataRate	CameraRate	NumFrames	NumMarkers	Units                	OrigDataRate	OrigDataStartFrame	OrigNumFrames
250.00	250.00	4	36	mm	250.0	858	1714
                Frame#	Time	LPSIS			LASIS			LTH1			LTH2			LTH3			LTH4			LLFE			LMFE			LSH1			LSH2			LSH3			LSH4			LLMAL			LMMAL			LCAL			LMTP5			LTOE			LMTP1			RPSIS			RASIS			RTH1			RTH2			RTH3			RTH4			RLFE			RMFE			RSH1			RSH2			RSH3			RSH4			RLMAL			RMMAL			RCAL			RMTP1			RTOE			RMTP5		
		X1	Y1	Z1	X2	Y2	Z2	X3	Y3	Z3	X4	Y4	Z4	X5	Y5	Z5	X6	Y6	Z6	X7	Y7	Z7	X8	Y8	Z8	X9	Y9	Z9	X10	Y10	Z10	X11	Y11	Z11	X12	Y12	Z12	X13	Y13	Z13	X14	Y14	Z14	X15	Y15	Z15	X16	Y16	Z16	X17	Y17	Z17	X18	Y18	Z18	X19	Y19	Z19	X20	Y20	Z20	X21	Y21	Z21	X22	Y22	Z22	X23	Y23	Z23	X24	Y24	Z24	X25	Y25	Z25	X26	Y26	Z26	X27	Y27	Z27	X28	Y28	Z28	X29	Y29	Z29	X30	Y30	Z30	X31	Y31	Z31	X32	Y32	Z32	X33	Y33	Z33	X34	Y34	Z34	X35	Y35	Z35	X36	Y36	Z36

858	3.42800	-389.57449	1015.03375	484.34796	-221.99857	970.47626	370.29053	-322.67340	801.70074	291.91766	-314.82739	739.95764	281.73062	-248.36198	802.22815	303.75424	-249.68274	741.93048	292.44141	-325.53482	481.48199	295.28577	-333.45270	447.92319	406.25009	-399.22186	377.61288	263.59021	-391.55399	335.07181	259.14780	-334.51038	383.01965	261.60266	-337.72086	339.19446	257.20062	-358.18948	92.77611	269.52621	-346.63837	98.12671	347.68704	-421.96164	66.65003	312.54846	-247.54350	30.60065	238.05757	-195.65753	55.53968	305.98642	-220.90454	35.94164	352.04208	-386.31775	1012.84613	557.06628	-196.79694	968.19861	611.13629	-289.44135	791.27985	707.13690	-283.05154	728.34100	708.26562	-217.25278	791.98425	684.87762	-220.77773	729.33472	690.46863	-304.45151	462.73300	688.21295	-299.07709	462.75775	578.19543	-363.54623	392.88739	716.43329	-360.34085	345.50732	722.45593	-303.58047	386.41650	709.18213	-309.59103	340.57135	715.35272	-336.64679	91.73415	697.75354	-317.01315	105.75516	619.10205	-400.44049	62.48552	656.60168	-197.80721	45.06577	622.13232	-176.41496	53.01588	661.44855	-219.42303	29.08111	728.66968
859	3.43200	-389.60522	1015.04700	484.34708	-221.99773	970.44379	370.30478	-322.63141	801.71710	291.91422	-314.78329	739.97675	281.72559	-248.37463	802.20764	303.74677	-249.66403	741.92908	292.43335	-325.50189	481.48499	295.29486	-333.43500	447.93646	406.23950	-399.19458	377.62442	263.57819	-391.50470	335.11218	259.11090	-334.48480	383.01733	261.58447	-337.72498	339.16095	257.22745	-358.20056	92.76974	269.52872	-346.64758	98.11711	347.68036	-421.98120	66.64497	312.57147	-247.53889	30.58571	238.07256	-195.68857	55.70060	306.00436	-220.89629	35.93937	352.05045	-386.31818	1012.85254	557.06146	-196.75673	968.19781	611.14252	-289.39838	791.26428	707.13214	-282.99329	728.32043	708.27759	-217.20341	792.00250	684.86316	-220.70726	729.35718	690.46472	-304.40530	462.71014	688.21307	-299.06073	462.76401	578.18994	-363.50516	392.88141	716.43463	-360.29004	345.52066	722.47339	-303.53290	386.40884	709.19513	-309.56494	340.55826	715.35138	-336.61505	91.73989	697.77130	-317.00986	105.73845	619.09113	-400.44370	62.47873	656.59161	-197.99124	44.79207	622.43604	-176.40775	53.01489	661.45251	-219.43758	29.06488	728.67151
860	3.43600	-389.61020	1015.06897	484.33453	-221.99698	970.43610	370.32587	-322.67184	801.71643	291.92892	-314.79138	739.99738	281.71860	-248.32974	802.23370	303.77161	-249.64052	741.93823	292.44263	-325.47864	481.49460	295.30228	-333.44852	447.92392	406.22128	-399.18643	377.64896	263.58505	-391.61765	335.03595	259.20819	-334.44580	383.03314	261.59967	-337.67349	339.15607	257.21808	-358.21185	92.80000	269.53842	-346.65433	98.09013	347.69714	-421.95425	66.64909	312.60831	-247.53195	30.59228	238.07104	-195.68785	55.73502	306.01797	-220.91248	35.91800	352.07434	-386.31497	1012.87042	557.06934	-196.74707	968.19556	611.14923	-289.38879	791.24304	707.14771	-282.94547	728.28827	708.27191	-217.16968	791.97449	684.87994	-220.66225	729.34009	690.46991	-304.40750	462.68497	688.23309	-299.04959	462.77414	578.20898	-363.50256	392.86905	716.43701	-360.27643	345.51779	722.46118	-303.51254	386.39359	709.20203	-309.53671	340.55688	715.36169	-336.63336	91.70916	697.77386	-316.99939	105.76817	619.10309	-400.44131	62.46744	656.62622	-197.79990	45.03356	622.17676	-176.41919	53.00872	661.47064	-219.46162	29.04968	728.70117
861	3.44000	-389.57693	1015.07422	484.35156	-221.96872	970.43146	370.33698	-322.63406	801.76202	291.92917	-314.74402	740.00946	281.72772	-248.31245	802.23798	303.75827	-249.61763	741.95270	292.46021	-325.45032	481.52267	295.31027	-333.38895	447.92282	406.22818	-399.18204	377.66830	263.60184	-391.59769	335.04800	259.24146	-334.42383	383.05316	261.62073	-337.64276	339.16351	257.20435	-358.21667	92.82916	269.54681	-346.62491	98.08227	347.71408	-421.93518	66.62354	312.61945	-247.51831	30.61056	238.10156	-195.97163	55.44552	306.26181	-220.91904	35.91303	352.09665	-386.31732	1012.87689	557.06958	-196.72789	968.20850	611.15753	-289.33734	791.23022	707.15594	-282.90945	728.25885	708.24945	-217.15192	791.98517	684.88733	-220.62578	729.33777	690.47351	-304.37274	462.68280	688.24829	-298.97675	462.81168	578.22015	-363.44543	392.86859	716.45825	-360.26639	345.49097	722.44373	-303.50424	386.38809	709.21985	-309.51379	340.55222	715.38525	-336.63052	91.69893	697.77484	-316.98334	105.77239	619.11603	-400.44632	62.48847	656.66730	-197.79559	45.04905	622.19946	-176.39682	53.02114	661.49445	-219.43486	29.03609	728.71143
